- 
http://www.torrentkit.com        thanks for supporting with server cost,  
http://www.torrentkit.com       the fast  and The Hottest Private Tracker on the net

Please Seed back to make the speed Faster!!!

and don't forget to visit      ...... www.torrentkit.com..........
-[img]http://img580.imageshack.us/img580/4875/thetouristblurayart.jpg[/img]

[color=blue][size=5][b]The Tourist 2010 BDRip HC-Subs XVID AC3 HQ Hive-CM8[/b][/size][/color]



[b]Thx Hive

CM8 Doing It Right The First Time :D

Why download a touched up rip of a rip BRrip
Get the real deal BDRip
Enjoy

Source Chinese Bluray

Video: 720x304 @bitrate 1900 2pass
Audio: DTS to AC3 5.1 @448
Sample: yes included
Subs: yes english hardcoded when needed
thx to "Dre" for supplying retail-like subs[/b]
 
http://www.imdb.com/title/tt1243957/


General
Complete name                    : The.Tourist.2010.BDRip.HC-Subs.XVID.AC3.HQ.Hive-CM8.avi
Format                           : AVI
Format/Info                      : Audio Video Interleave
File size                        : 1.71 GiB
Duration                         : 1h 43mn
Overall bit rate                 : 2 364 Kbps
Writing application              : Nandub v1.0rc2
Writing library                  : Nandub build 1853/release

Video
ID                               : 0
Format                           : MPEG-4 Visual
Format profile                   : Advanced Simple@L5
Format settings, BVOP            : Yes
Format settings, QPel            : Yes
Format settings, GMC             : No warppoints
Format settings, Matrix          : Default (H.263)
Muxing mode                      : Packed bitstream
Codec ID                         : XVID
Codec ID/Hint                    : XviD
Duration                         : 1h 43mn
Bit rate                         : 1 907 Kbps
Width                            : 720 pixels
Height                           : 304 pixels
Display aspect ratio             : 2.40:1
Frame rate                       : 23.976 fps
Color space                      : YUV
Chroma subsampling               : 4:2:0
Bit depth                        : 8 bits
Scan type                        : Progressive
Bits/(Pixel*Frame)               : 0.363
Stream size                      : 1.38 GiB (81%)
Writing library                  : XviD 1.2.1 (UTC 2008-12-04)

Audio
ID                               : 1
Format                           : AC-3
Format/Info                      : Audio Coding 3
Mode extension                   : CM (complete main)
Codec ID                         : 2000
Duration                         : 1h 43mn
Bit rate mode                    : Constant
Bit rate                         : 448 Kbps
Channel(s)                       : 6 channels
Channel positions                : Front: L C R, Side: L R, LFE
Sampling rate                    : 48.0 KHz
Bit depth                        : 16 bits
Stream size                      : 332 MiB (19%)
Alignment                        : Split accross interleaves
Interleave, duration             : 42 ms (1.00 video frame)
Interleave, preload duration     : 500 ms



Johnny Depp ... Frank Tupelo
Angelina Jolie ... Elise Clifton-Ward
Paul Bettany ... Inspector John Acheson  




Revolves around Frank, an American tourist visiting Italy to mend a broken heart. 
Elise is an extraordinary woman who deliberately crosses his path.



[img]http://img832.imageshack.us/img832/2887/24570106.png[/img]
[img]http://img171.imageshack.us/img171/1742/totoa.png[/img]
[img]http://img411.imageshack.us/img411/6499/tototo.png[/img]
[img]http://img207.imageshack.us/img207/5769/totototo.png[/img]
[img]http://img195.imageshack.us/img195/6884/tototototo.png[/img]





Greetz

iNK,LUSi,,MAGNET,CLASSiFiED,THC,LEGi0N,T0XiC,IMAGiNE,ViSiON,WBZ,FLAWL3SS,NOVA
Vik,Rapeseed,D2U,SAFC,goldadvance,MEMORY100,KaN1vE,Unevano,Pinnz,Wayne,Mr Hive
and all P2P groups 
Great Work Guys :D

CM8@hushmail.com